Coordinates
version=1
nRows=22
nColumns=24
inDegrees=yes

Units are S.I. units (second, meters, Newtons, ...)
Angles are in degrees.

endheader
time	pelvis_tilt	pelvis_list	pelvis_rotation	pelvis_tx	pelvis_ty	pelvis_tz	hip_flexion_r	hip_adduction_r	hip_rotation_r	knee_angle_r	ankle_angle_r	subtalar_angle_r	mtp_angle_r	hip_flexion_l	hip_adduction_l	hip_rotation_l	knee_angle_l	ankle_angle_l	subtalar_angle_l	mtp_angle_l	lumbar_extension	lumbar_bending	lumbar_rotation
      5.02000000	     -3.15387931	      4.07014304	      1.12189681	      0.78767938	      1.00380124	     -0.28021138	     25.04440111	     -2.05946590	      4.54753525	     -6.67495908	     11.50193441	     -5.34843515	      0.00000000	    -14.82586840	      7.50755898	      4.63322426	     -7.31351316	     15.79633684	     -3.96577406	      0.00000000	     -8.71836641	     -3.98512748	     -8.73041639
      5.02500000	     -3.08954346	      3.99674814	      1.16190697	      0.79502052	      1.00341369	     -0.27972042	     25.03958131	     -1.91895221	      4.30055026	     -7.54428447	     11.45836396	     -4.93164505	      0.00000000	    -14.78475528	      7.35229030	      4.22626111	     -8.34287282	     15.93990608	     -3.13414814	      0.00000000	     -8.72483353	     -3.89948827	     -8.70974490
      5.03000000	     -3.03542425	      3.89530414	      1.20923776	      0.80239091	      1.00308745	     -0.27923503	     25.03476240	     -1.76015308	      4.04762030	     -8.41069458	     11.25600196	     -4.53659483	      0.00000000	    -14.70427324	      7.16166850	      3.78408140	     -9.41855650	     16.02938179	     -2.30061805	      0.00000000	     -8.71422019	     -3.77980614	     -8.69363117
      5.03500000	     -2.99764471	      3.75489415	      1.25623469	      0.80976950	      1.00280186	     -0.27874718	     25.03853019	     -1.57014679	      3.82175551	     -9.25740717	     10.91919750	     -4.18137381	      0.00000000	    -14.57078383	      6.92531063	      3.30086811	    -10.55391559	     16.09568750	     -1.45399779	      0.00000000	     -8.68423839	     -3.60803579	     -8.66128467
      5.04000000	     -2.97337148	      3.57830597	      1.30745677	      0.81713860	      1.00262266	     -0.27824805	     25.04450756	     -1.35126760	      3.59704721	    -10.05595400	     10.40808547	     -3.90967837	      0.00000000	    -14.39284028	      6.64229895	      2.78881561	    -11.72941681	     16.07921871	     -0.61395993	      0.00000000	     -8.64169601	     -3.40104589	     -8.62582170
      5.04500000	     -2.96186331	      3.36074007	      1.35585874	      0.82449530	      1.00253830	     -0.27772861	     25.05484763	     -1.09402161	      3.41302892	    -10.80858658	      9.79089342	     -3.74449604	      0.00000000	    -14.16447281	      6.30815683	      2.24067201	    -12.95896622	     15.98908095	      0.22201772	      0.00000000	     -8.58600839	     -3.14519948	     -8.57711943
      5.05000000	     -2.96326036	      3.10503544	      1.40640924	      0.83184495	      1.00255779	     -0.27722125	     25.06794688	     -0.80252256	      3.28001220	    -11.51683726	      9.11294352	     -3.70749518	      0.00000000	    -13.88556145	      5.92508232	      1.65761621	    -14.24052965	     15.81362940	      1.04310252	      0.00000000	     -8.51603770	     -2.84436480	     -8.52042148
      5.05500000	     -2.97301218	      2.82489202	      1.45041854	      0.83917361	      1.00266983	     -0.27670523	     25.08566660	     -0.48180467	      3.22719058	    -12.20138768	      8.43326496	     -3.81700011	      0.00000000	    -13.55768533	      5.50682667	      1.03731214	    -15.57829157	     15.54354827	      1.84618043	      0.00000000	     -8.44010436	     -2.51735676	     -8.45099025
      5.06000000	     -2.98797960	      2.52834172	      1.48699678	      0.84650030	      1.00286409	     -0.27618842	     25.10250625	     -0.13683409	      3.26663361	    -12.87431770	      7.80724900	     -4.06964438	      0.00000000	    -13.18457916	      5.06110309	      0.38532865	    -16.97203779	     15.16600796	      2.61796381	      0.00000000	     -8.35778034	     -2.17098826	     -8.36780543
      5.06500000	     -2.99457510	      2.22922924	      1.54233666	      0.85386785	      1.00317467	     -0.27572520	     25.09966651	      0.20341509	      3.29958450	    -13.54567712	      7.30453880	     -4.37660036	      0.00000000	    -12.78530428	      4.59550425	     -0.26870106	    -18.41086517	     14.63305986	      3.33785694	      0.00000000	     -8.27487543	     -1.82035983	     -8.28790756
      5.07000000	     -2.99664255	      1.93397880	      1.57326981	      0.86119045	      1.00351405	     -0.27525692	     25.10520428	      0.55721546	      3.41149363	    -14.25906721	      6.93844617	     -4.76990024	      0.00000000	    -12.34383806	      4.12679688	     -0.95571302	    -19.91297953	     13.99904339	      3.99863760	      0.00000000	     -8.20803806	     -1.47205964	     -8.20354647
      5.07500000	     -2.99866656	      1.64997305	      1.58991800	      0.86855334	      1.00388695	     -0.27479338	     25.10332022	      0.91099834	      3.54815587	    -14.98623213	      6.73168652	     -5.20221542	      0.00000000	    -11.86253859	      3.65663644	     -1.66746709	    -21.46720137	     13.21558271	      4.59999897	      0.00000000	     -8.13650537	     -1.12610026	     -8.11157309
      5.08000000	     -2.97184013	      1.39620431	      1.61687840	      0.87589433	      1.00434277	     -0.27436876	     25.07254965	      1.22838030	      3.59960030	    -15.73714143	      6.71274830	     -5.55679518	      0.00000000	    -11.36394284	      3.19763545	     -2.37978523	    -23.07510769	     12.25352989	      5.13112627	      0.00000000	     -8.09917324	     -0.81886962	     -8.02227538
      5.08500000	     -2.94224858	      1.15409822	      1.62686750	      0.88325519	      1.00480723	     -0.27394983	     25.02797226	      1.54210084	      3.64455090	    -16.48836102	      6.83571355	     -5.88453653	      0.00000000	    -10.82571942	      2.73648343	     -3.11445328	    -24.73086979	     11.13486542	      5.57731424	      0.00000000	     -8.06281385	     -0.52432388	     -7.92828925
      5.09000000	     -2.90863362	      0.92756596	      1.63029492	      0.89060831	      1.00528345	     -0.27351699	     24.96418925	      1.84445095	      3.66514244	    -17.22526633	      7.08248962	     -6.16412196	      0.00000000	    -10.24540921	      2.27128211	     -3.86135376	    -26.43370883	      9.84138033	      5.93144599	      0.00000000	     -8.03171829	     -0.25099054	     -7.83064720
      5.09500000	     -2.87077609	      0.70960695	      1.62141778	      0.89792994	      1.00577201	     -0.27306668	     24.87979669	      2.14184806	      3.65210908	    -17.93576597	      7.41455188	     -6.38184883	      0.00000000	     -9.62593662	      1.79602326	     -4.61367388	    -28.17431187	      8.36897183	      6.19289505	      0.00000000	     -8.01292817	      0.01441438	     -7.73088577
      5.10000000	     -2.83130691	      0.49847527	      1.60319767	      0.90520989	      1.00626806	     -0.27260224	     24.76902332	      2.43408156	      3.61086315	    -18.59958043	      7.80826592	     -6.55354802	      0.00000000	     -8.96691850	      1.30896577	     -5.35992550	    -29.94313237	      6.71308181	      6.34852118	      0.00000000	     -8.00496978	      0.27498131	     -7.63039229
      5.10500000	     -2.75788046	      0.28579433	      1.60907756	      0.91244100	      1.00680892	     -0.27211038	     24.59120683	      2.72167394	      3.52223188	    -19.20499132	      8.24477374	     -6.71490457	      0.00000000	     -8.30313238	      0.79259734	     -6.07256145	    -31.73206414	      4.88617116	      6.36872651	      0.00000000	     -8.04375787	      0.52054923	     -7.52952528
      5.11000000	     -2.83028453	      0.10302065	      1.53743104	      0.91958001	      1.00712780	     -0.27148129	     24.56120678	      3.00701876	      3.51097060	    -19.78886119	      8.69809449	     -6.80177094	      0.00000000	     -7.44858023	      0.29699637	     -6.83211384	    -33.54692360	      2.91978497	      6.34937446	      0.00000000	     -7.91940707	      0.72096590	     -7.38768154
      5.11500000	     -2.73573277	     -0.14448684	      1.54956493	      0.92673987	      1.00770847	     -0.27096417	     24.28321119	      3.32459975	      3.38221603	    -20.23881325	      9.13745408	     -6.93032413	      0.00000000	     -6.75068912	     -0.28979724	     -7.46684711	    -35.33564995	      0.79857501	      6.15274189	      0.00000000	     -7.99542848	      1.00674908	     -7.30743998
      5.12000000	     -2.67173136	     -0.40064146	      1.53402685	      0.93384161	      1.00822409	     -0.27036841	     24.01172653	      3.66384889	      3.28088588	    -20.63464589	      9.58155740	     -7.04231364	      0.00000000	     -5.99665380	     -0.89601041	     -8.08766987	    -37.12134807	     -1.40870513	      5.86403447	      0.00000000	     -8.04269414	      1.29425021	     -7.19706286
      5.12500000	     -2.76867258	     -0.59048503	      1.48166724	      0.94084678	      1.00852674	     -0.26970551	     23.89632512	      3.94777359	      3.25005649	    -20.99811612	     10.02548487	     -7.12016545	      0.00000000	     -5.05211610	     -1.41941868	     -8.64610990	    -38.88572867	     -3.73610232	      5.42517022	      0.00000000	     -7.90179247	      1.48305127	     -7.07282920
